<svg width="70" height="27" viewBox="0 0 70.4098 26.8" fill="none" xmlns="http://www.w3.org/2000/svg">
<g id="Logo">
<g id="oaiz">
<path d="M9.972 7C11.34 7 12.636 7.252 13.86 7.756C15.084 8.236 16.152 8.908 17.064 9.772C18 10.636 18.732 11.668 19.26 12.868C19.812 14.044 20.088 15.34 20.088 16.756C20.088 18.22 19.812 19.564 19.26 20.788C18.732 22.012 18 23.068 17.064 23.956C16.152 24.844 15.084 25.54 13.86 26.044C12.636 26.548 11.34 26.8 9.972 26.8C8.628 26.8 7.344 26.56 6.12 26.08C4.92 25.576 3.864 24.88 2.952 23.992C2.04 23.104 1.32 22.048 0.792 20.824C0.264 19.576 0 18.22 0 16.756C0 15.34 0.264 14.032 0.792 12.832C1.32 11.632 2.04 10.6 2.952 9.736C3.864 8.872 4.92 8.2 6.12 7.72C7.344 7.24 8.628 7 9.972 7ZM9.972 8.728C9.084 8.728 8.268 8.92 7.524 9.304C6.804 9.688 6.18 10.24 5.652 10.96C5.148 11.656 4.752 12.508 4.464 13.516C4.2 14.5 4.068 15.592 4.068 16.792C4.068 18.04 4.2 19.168 4.464 20.176C4.752 21.184 5.148 22.048 5.652 22.768C6.18 23.464 6.804 24.004 7.524 24.388C8.244 24.772 9.06 24.964 9.972 24.964C10.884 24.964 11.712 24.772 12.456 24.388C13.2 24.004 13.836 23.452 14.364 22.732C14.892 22.012 15.3 21.148 15.588 20.14C15.876 19.132 16.02 18.016 16.02 16.792C16.02 15.592 15.876 14.5 15.588 13.516C15.3 12.532 14.892 11.692 14.364 10.996C13.836 10.276 13.2 9.724 12.456 9.34C11.712 8.932 10.884 8.728 9.972 8.728Z" fill="#1E1E1E"/>
<path d="M33.6707 15.784C32.3027 16.312 31.1387 16.828 30.1787 17.332C29.2427 17.836 28.4867 18.34 27.9107 18.844C27.3347 19.348 26.9147 19.852 26.6507 20.356C26.4107 20.86 26.2907 21.376 26.2907 21.904C26.2907 22.696 26.5547 23.344 27.0827 23.848C27.6107 24.352 28.3067 24.604 29.1707 24.604C29.7947 24.604 30.3707 24.448 30.8987 24.136C31.4507 23.824 31.9307 23.404 32.3387 22.876C32.7467 22.324 33.0707 21.688 33.3107 20.968C33.5507 20.224 33.6707 19.444 33.6707 18.628V15.784ZM33.6707 14.236V12.76C33.6707 9.832 32.4227 8.368 29.9267 8.368C29.5187 8.368 29.1707 8.404 28.8827 8.476C28.5947 8.548 28.3547 8.668 28.1627 8.836C27.9707 9.004 27.7907 9.244 27.6227 9.556C27.4787 9.868 27.3347 10.252 27.1907 10.708C26.9267 11.404 26.6627 11.872 26.3987 12.112C26.1587 12.328 25.7987 12.436 25.3187 12.436C24.1187 12.436 23.5187 11.836 23.5187 10.636C23.5187 9.484 24.1307 8.596 25.3547 7.972C26.5787 7.324 28.3187 7 30.5747 7C32.9747 7 34.6787 7.432 35.6867 8.296C36.6947 9.136 37.1987 10.576 37.1987 12.616V20.68C37.1987 23.416 37.7387 24.784 38.8187 24.784C39.1547 24.784 39.4787 24.748 39.7907 24.676C40.1027 24.58 40.3667 24.352 40.5827 23.992L41.0867 24.856C40.7987 25.408 40.2707 25.876 39.5027 26.26C38.7347 26.62 37.9307 26.8 37.0907 26.8C36.0347 26.8 35.2427 26.464 34.7147 25.792C34.2107 25.12 33.9587 24.172 33.9587 22.948H33.7787C33.1547 24.124 32.2907 25.06 31.1867 25.756C30.0827 26.428 28.8587 26.764 27.5147 26.764C26.0027 26.764 24.8147 26.38 23.9507 25.612C23.0867 24.844 22.6547 23.812 22.6547 22.516C22.6547 21.94 22.7507 21.388 22.9427 20.86C23.1587 20.332 23.4947 19.828 23.9507 19.348C24.4067 18.868 25.0067 18.4 25.7507 17.944C26.4947 17.464 27.4067 16.984 28.4867 16.504L33.6707 14.236Z" fill="#1E1E1E"/>
<path d="M48.5283 20.716C48.5283 21.652 48.5643 22.408 48.6363 22.984C48.7323 23.536 48.9003 23.98 49.1403 24.316C49.3803 24.628 49.7163 24.844 50.1483 24.964C50.5803 25.084 51.1563 25.156 51.8763 25.18V26.44H41.5443V25.18C42.2643 25.156 42.8523 25.084 43.3083 24.964C43.7643 24.82 44.1123 24.604 44.3523 24.316C44.6163 24.004 44.7843 23.584 44.8563 23.056C44.9523 22.504 45.0003 21.808 45.0003 20.968V16.36C45.0003 14.968 44.9763 13.828 44.9283 12.94C44.9043 12.028 44.8443 11.404 44.7483 11.068C44.6283 10.516 44.3523 10.144 43.9203 9.952C43.4883 9.736 42.6723 9.628 41.4723 9.628V8.368L48.5283 7V20.716Z" fill="#1E1E1E"/>
<path d="M69.7978 26.44H52.5178V26.296L64.9738 8.872H60.9778C59.9458 8.872 59.0938 8.92 58.4218 9.016C57.7738 9.088 57.2338 9.256 56.8018 9.52C56.3938 9.76 56.0818 10.108 55.8658 10.564C55.6498 10.996 55.4818 11.584 55.3618 12.328H54.2098L54.7858 7.36H70.2658V7.504L57.9898 24.784H62.2018C63.4258 24.784 64.4338 24.736 65.2258 24.64C66.0418 24.544 66.7018 24.352 67.2058 24.064C67.7338 23.776 68.1418 23.38 68.4298 22.876C68.7418 22.372 69.0058 21.7 69.2218 20.86H70.4098L69.7978 26.44Z" fill="#1E1E1E"/>
</g>
<path id="oaiz_2" d="M43.871 0.870968C43.2903 1.45161 43 2.16129 43 3H49C49 2.16129 48.7097 1.45161 48.129 0.870968C47.5484 0.290323 46.8387 0 46 0C45.1613 0 44.4516 0.290323 43.871 0.870968Z" fill="#1E1E1E"/>
</g>
</svg>
