<svg xmlns="http://www.w3.org/2000/svg" width="1200" height="630" viewBox="0 0 1200 630">
  <defs>
    <linearGradient id="bg" x1="0%" y1="0%" x2="100%" y2="100%">
      <stop offset="0%" stop-color="#0a0a0a"/>
      <stop offset="100%" stop-color="#121218"/>
    </linearGradient>
    <linearGradient id="accent" x1="0%" y1="0%" x2="100%" y2="0%">
      <stop offset="0%" stop-color="#0d9488"/>
      <stop offset="100%" stop-color="#f97316"/>
    </linearGradient>
    <pattern id="grid" width="40" height="40" patternUnits="userSpaceOnUse">
      <path d="M 40 0 L 0 0 0 40" fill="none" stroke="#1a1a2e" stroke-width="0.5"/>
    </pattern>
  </defs>
  <rect width="1200" height="630" fill="url(#bg)"/>
  <rect width="1200" height="630" fill="url(#grid)"/>
  <g transform="translate(100, 120)">
    <circle cx="80" cy="40" r="20" fill="none" stroke="#0d9488" stroke-width="2"/>
    <text x="80" y="46" text-anchor="middle" fill="#0d9488" font-family="monospace" font-size="11">if</text>
    <line x1="80" y1="60" x2="40" y2="100" stroke="#2a2a3e" stroke-width="1.5"/>
    <line x1="80" y1="60" x2="120" y2="100" stroke="#2a2a3e" stroke-width="1.5"/>
    <circle cx="40" cy="120" r="16" fill="none" stroke="#0d9488" stroke-width="2"/>
    <text x="40" y="125" text-anchor="middle" fill="#0d9488" font-family="monospace" font-size="9">x</text>
    <circle cx="120" cy="120" r="16" fill="none" stroke="#0d9488" stroke-width="2"/>
    <text x="120" y="125" text-anchor="middle" fill="#0d9488" font-family="monospace" font-size="9">1</text>
    <text x="80" y="230" fill="#3a3a4e" font-family="monospace" font-size="10">AST</text>
  </g>
  <g transform="translate(330, 120)">
    <rect x="0" y="20" width="60" height="30" rx="4" fill="none" stroke="#f97316" stroke-width="2"/>
    <text x="30" y="40" text-anchor="middle" fill="#f97316" font-family="monospace" font-size="10">entry</text>
    <path d="M 30 50 L 30 70" stroke="#3a3a4e" stroke-width="1.5"/>
    <path d="M 30 75 L 10 90" stroke="#3a3a4e" stroke-width="1.5"/>
    <path d="M 30 75 L 50 90" stroke="#3a3a4e" stroke-width="1.5"/>
    <rect x="-20" y="90" width="55" height="30" rx="4" fill="none" stroke="#f97316" stroke-width="2"/>
    <text x="7" y="110" text-anchor="middle" fill="#f97316" font-family="monospace" font-size="9">then</text>
    <rect x="35" y="90" width="55" height="30" rx="4" fill="none" stroke="#f97316" stroke-width="2"/>
    <text x="62" y="110" text-anchor="middle" fill="#f97316" font-family="monospace" font-size="9">else</text>
    <path d="M 7 120 L 30 140" stroke="#3a3a4e" stroke-width="1.5"/>
    <path d="M 62 120 L 30 140" stroke="#3a3a4e" stroke-width="1.5"/>
    <rect x="0" y="140" width="60" height="30" rx="4" fill="none" stroke="#f97316" stroke-width="2"/>
    <text x="30" y="160" text-anchor="middle" fill="#f97316" font-family="monospace" font-size="9">join</text>
    <rect x="0" y="190" width="60" height="30" rx="4" fill="none" stroke="#f97316" stroke-width="2"/>
    <text x="30" y="210" text-anchor="middle" fill="#f97316" font-family="monospace" font-size="8">exit</text>
    <text x="30" y="250" text-anchor="middle" fill="#3a3a4e" font-family="monospace" font-size="10">CFG</text>
  </g>
  <g transform="translate(590, 120)">
    <rect x="0" y="20" width="70" height="25" rx="3" fill="#0d9488" fill-opacity="0.15" stroke="#0d9488" stroke-width="1.5"/>
    <text x="35" y="37" text-anchor="middle" fill="#0d9488" font-family="monospace" font-size="8">source</text>
    <path d="M 35 45 L 35 65" stroke="#0d9488" stroke-width="1.5" stroke-dasharray="3 3"/>
    <rect x="0" y="65" width="70" height="25" rx="3" fill="#2a2a3e" fill-opacity="0.5" stroke="#4a4a5e" stroke-width="1"/>
    <text x="35" y="82" text-anchor="middle" fill="#6a6a7e" font-family="monospace" font-size="8">assign</text>
    <path d="M 35 90 L 35 110" stroke="#0d9488" stroke-width="1.5" stroke-dasharray="3 3"/>
    <rect x="0" y="110" width="70" height="25" rx="3" fill="#f97316" fill-opacity="0.15" stroke="#f97316" stroke-width="2"/>
    <text x="35" y="127" text-anchor="middle" fill="#f97316" font-family="monospace" font-size="8">SINK</text>
    <text x="35" y="175" text-anchor="middle" fill="#3a3a4e" font-family="monospace" font-size="10">Taint Flow</text>
  </g>
  <g transform="translate(750, 200)">
    <text x="0" y="0" fill="#e4e4e7" font-family="Georgia, serif" font-size="42" font-weight="bold">Static</text>
    <text x="0" y="50" fill="#e4e4e7" font-family="Georgia, serif" font-size="42" font-weight="bold">Analysis</text>
    <text x="0" y="90" fill="#6a6a7e" font-family="monospace" font-size="14">A Developer's Tutorial</text>
    <line x1="0" y1="110" x2="200" y2="110" stroke="url(#accent)" stroke-width="2"/>
    <text x="0" y="140" fill="#4a4a5e" font-family="monospace" font-size="11">AST - CFG - Dataflow - Taint</text>
    <text x="0" y="158" fill="#4a4a5e" font-family="monospace" font-size="11">Symbolic - Types - Tools</text>
  </g>
  <rect x="0" y="600" width="1200" height="30" fill="#0d9488" fill-opacity="0.08"/>
  <text x="100" y="620" fill="#3a3a4e" font-family="monospace" font-size="11">addcommitpush.io</text>
</svg>
